<?xml version="1.0" standalone="no"?>
<!DOCTYPE svg PUBLIC "-//W3C//DTD SVG 20010904//EN"
 "http://www.w3.org/TR/2001/REC-SVG-20010904/DTD/svg10.dtd">
<svg version="1.0" xmlns="http://www.w3.org/2000/svg"
 width="1600.000000pt" height="1600.000000pt" viewBox="0 0 1600.000000 1600.000000"
 preserveAspectRatio="xMidYMid meet">

<g transform="translate(0.000000,1600.000000) scale(0.100000,-0.100000)"
fill="#000000" stroke="none">
<path d="M5110 13993 c-635 -49 -1208 -253 -1703 -607 -175 -125 -256 -195
-427 -366 -277 -277 -463 -533 -630 -868 -194 -390 -302 -780 -340 -1232 -14
-162 -13 -5677 0 -5847 78 -963 560 -1833 1337 -2415 468 -350 1028 -569 1633
-640 170 -19 5870 -19 6040 0 797 93 1503 440 2049 1007 456 475 758 1063 875
1705 53 294 51 149 51 3270 0 3121 2 2976 -51 3270 -97 529 -318 1019 -660
1460 -104 134 -402 437 -522 530 -526 409 -1030 623 -1687 717 -111 16 -336
17 -3020 18 -1595 1 -2920 0 -2945 -2z m7059 -1349 c121 -32 262 -119 334
-206 189 -231 215 -534 66 -785 -44 -72 -150 -178 -222 -222 -267 -159 -598
-118 -816 100 -230 229 -262 572 -79 845 154 230 444 338 717 268z m-3734
-1338 c261 -38 500 -97 727 -182 1067 -397 1862 -1318 2097 -2430 56 -264 65
-361 65 -694 0 -318 -9 -424 -55 -649 -144 -703 -496 -1330 -1014 -1804 -242
-221 -491 -390 -790 -537 -476 -234 -933 -340 -1465 -340 -532 0 -989 106
-1465 340 -212 104 -360 194 -539 329 -714 537 -1176 1326 -1301 2222 -25 178
-31 589 -11 779 143 1358 1084 2483 2396 2865 144 41 387 89 535 105 61 6 119
13 130 15 57 10 590 -5 690 -19z"/>
<path d="M7751 9984 c-343 -41 -691 -185 -976 -403 -85 -64 -256 -232 -328
-321 -490 -606 -584 -1440 -242 -2137 596 -1214 2197 -1501 3173 -569 446 427
672 1030 612 1637 -39 390 -192 766 -437 1069 -71 87 -241 254 -328 321 -419
322 -948 467 -1474 403z"/>
</g>
</svg>
