<?xml version="1.0" standalone="no"?>
<!DOCTYPE svg PUBLIC "-//W3C//DTD SVG 20010904//EN"
 "http://www.w3.org/TR/2001/REC-SVG-20010904/DTD/svg10.dtd">
<svg version="1.0" xmlns="http://www.w3.org/2000/svg"
 width="512.000000pt" height="512.000000pt" viewBox="0 0 512.000000 512.000000"
 preserveAspectRatio="xMidYMid meet">

<g transform="translate(0.000000,512.000000) scale(0.100000,-0.100000)"
fill="#000000" stroke="none">
<path d="M565 4151 c-16 -4 -41 -13 -55 -21 l-24 -13 55 -51 c31 -28 462 -438
958 -911 551 -526 919 -869 946 -884 80 -43 187 -38 260 12 36 25 1935 1818
1935 1827 0 4 -17 15 -37 26 -37 19 -81 19 -2023 21 -1092 0 -1998 -2 -2015
-6z"/>
<path d="M325 3898 c-9 -53 -1 -2695 9 -2705 5 -4 11 -1 14 7 10 27 106 122
760 743 l653 621 -23 22 c-13 12 -313 297 -668 633 -355 337 -662 633 -684
659 -21 26 -42 48 -47 50 -4 2 -11 -12 -14 -30z"/>
<path d="M4765 3911 c-8 -26 -26 -44 -758 -739 -610 -581 -646 -617 -630 -633
823 -778 1309 -1242 1347 -1287 27 -31 52 -58 56 -60 4 -2 10 7 14 20 8 30 8
2666 0 2696 -8 27 -21 29 -29 3z"/>
<path d="M1210 1705 c-399 -377 -726 -689 -728 -693 -1 -4 15 -17 35 -28 37
-19 79 -19 2023 -21 1851 -2 1988 -1 2035 15 28 9 49 21 49 26 -2 9 -1435
1376 -1444 1376 -3 0 -99 -90 -215 -200 -248 -236 -277 -255 -400 -255 -124 0
-152 18 -404 257 -117 112 -216 204 -220 206 -3 1 -332 -306 -731 -683z"/>
</g>
</svg>
